<svg xmlns="http://www.w3.org/2000/svg" version="1.1" xmlns:xlink="http://www.w3.org/1999/xlink" xmlns:svgjs="http://svgjs.dev/svgjs" width="1440" height="560" preserveAspectRatio="none" viewBox="0 0 1440 560">
    <g mask="url(&quot;#SvgjsMask1000&quot;)" fill="none">
        <rect width="1440" height="560" x="0" y="0" fill="#0e2a47"></rect>
        <path d="M19.64 -9.12L84.59 28.38L84.59 103.38L19.64 140.88L-45.31 103.38L-45.31 28.38zM149.55 -9.12L214.5 28.38L214.5 103.38L149.55 140.88L84.59 103.38L84.59 28.38zM149.55 215.88L214.5 253.38L214.5 328.38L149.55 365.88L84.59 328.38L84.59 253.38zM214.5 328.38L279.45 365.88L279.45 440.88L214.5 478.38L149.55 440.88L149.55 365.88zM214.5 553.38L279.45 590.88L279.45 665.88L214.5 703.38L149.55 665.88L149.55 590.88zM279.45 215.88L344.41 253.38L344.41 328.38L279.45 365.88L214.5 328.38L214.5 253.38zM409.36 -9.12L474.32 28.38L474.32 103.38L409.36 140.88L344.41 103.38L344.41 28.38zM474.32 103.38L539.27 140.88L539.27 215.88L474.32 253.38L409.36 215.88L409.36 140.88zM474.32 553.38L539.27 590.88L539.27 665.88L474.32 703.38L409.36 665.88L409.36 590.88zM539.27 215.88L604.22 253.38L604.22 328.38L539.27 365.88L474.32 328.38L474.32 253.38zM604.22 328.38L669.18 365.88L669.18 440.88L604.22 478.38L539.27 440.88L539.27 365.88zM539.27 440.88L604.22 478.38L604.22 553.38L539.27 590.88L474.32 553.38L474.32 478.38zM734.13 328.38L799.09 365.88L799.09 440.88L734.13 478.38L669.18 440.88L669.18 365.88zM799.08 215.88L864.04 253.38L864.04 328.38L799.08 365.88L734.13 328.38L734.13 253.38zM864.04 328.38L928.99 365.88L928.99 440.88L864.04 478.38L799.08 440.88L799.08 365.88zM799.08 440.88L864.04 478.38L864.04 553.38L799.08 590.88L734.13 553.38L734.13 478.38zM864.04 553.38L928.99 590.88L928.99 665.88L864.04 703.38L799.08 665.88L799.08 590.88zM993.95 103.38L1058.9 140.88L1058.9 215.88L993.95 253.38L928.99 215.88L928.99 140.88zM928.99 215.88L993.95 253.38L993.95 328.38L928.99 365.88L864.04 328.38L864.04 253.38zM993.95 328.38L1058.9 365.88L1058.9 440.88L993.95 478.38L928.99 440.88L928.99 365.88zM928.99 440.88L993.95 478.38L993.95 553.38L928.99 590.88L864.04 553.38L864.04 478.38zM1123.85 103.38L1188.81 140.88L1188.81 215.88L1123.85 253.38L1058.9 215.88L1058.9 140.88zM1058.9 215.88L1123.85 253.38L1123.85 328.38L1058.9 365.88L993.95 328.38L993.95 253.38zM1123.85 328.38L1188.81 365.88L1188.81 440.88L1123.85 478.38L1058.9 440.88L1058.9 365.88zM1058.9 440.88L1123.85 478.38L1123.85 553.38L1058.9 590.88L993.95 553.38L993.95 478.38zM1253.76 103.38L1318.71 140.88L1318.71 215.88L1253.76 253.38L1188.81 215.88L1188.81 140.88zM1448.62 -9.12L1513.58 28.38L1513.58 103.38L1448.62 140.88L1383.67 103.38L1383.67 28.38zM1448.62 440.88L1513.58 478.38L1513.58 553.38L1448.62 590.88L1383.67 553.38L1383.67 478.38z" stroke="#03305d" stroke-width="2"></path>
        <path d="M12.14 -9.12 a7.5 7.5 0 1 0 15 0 a7.5 7.5 0 1 0 -15 0zM77.09 28.38 a7.5 7.5 0 1 0 15 0 a7.5 7.5 0 1 0 -15 0zM77.09 103.38 a7.5 7.5 0 1 0 15 0 a7.5 7.5 0 1 0 -15 0zM12.14 140.88 a7.5 7.5 0 1 0 15 0 a7.5 7.5 0 1 0 -15 0zM-52.81 103.38 a7.5 7.5 0 1 0 15 0 a7.5 7.5 0 1 0 -15 0zM-52.81 28.38 a7.5 7.5 0 1 0 15 0 a7.5 7.5 0 1 0 -15 0zM142.05 -9.12 a7.5 7.5 0 1 0 15 0 a7.5 7.5 0 1 0 -15 0zM207 28.38 a7.5 7.5 0 1 0 15 0 a7.5 7.5 0 1 0 -15 0zM207 103.38 a7.5 7.5 0 1 0 15 0 a7.5 7.5 0 1 0 -15 0zM142.05 140.88 a7.5 7.5 0 1 0 15 0 a7.5 7.5 0 1 0 -15 0zM142.05 215.88 a7.5 7.5 0 1 0 15 0 a7.5 7.5 0 1 0 -15 0zM207 253.38 a7.5 7.5 0 1 0 15 0 a7.5 7.5 0 1 0 -15 0zM207 328.38 a7.5 7.5 0 1 0 15 0 a7.5 7.5 0 1 0 -15 0zM142.05 365.88 a7.5 7.5 0 1 0 15 0 a7.5 7.5 0 1 0 -15 0zM77.09 328.38 a7.5 7.5 0 1 0 15 0 a7.5 7.5 0 1 0 -15 0zM77.09 253.38 a7.5 7.5 0 1 0 15 0 a7.5 7.5 0 1 0 -15 0zM271.95 365.88 a7.5 7.5 0 1 0 15 0 a7.5 7.5 0 1 0 -15 0zM271.95 440.88 a7.5 7.5 0 1 0 15 0 a7.5 7.5 0 1 0 -15 0zM207 478.38 a7.5 7.5 0 1 0 15 0 a7.5 7.5 0 1 0 -15 0zM142.05 440.88 a7.5 7.5 0 1 0 15 0 a7.5 7.5 0 1 0 -15 0zM207 553.38 a7.5 7.5 0 1 0 15 0 a7.5 7.5 0 1 0 -15 0zM271.95 590.88 a7.5 7.5 0 1 0 15 0 a7.5 7.5 0 1 0 -15 0zM271.95 665.88 a7.5 7.5 0 1 0 15 0 a7.5 7.5 0 1 0 -15 0zM207 703.38 a7.5 7.5 0 1 0 15 0 a7.5 7.5 0 1 0 -15 0zM142.05 665.88 a7.5 7.5 0 1 0 15 0 a7.5 7.5 0 1 0 -15 0zM142.05 590.88 a7.5 7.5 0 1 0 15 0 a7.5 7.5 0 1 0 -15 0zM271.95 215.88 a7.5 7.5 0 1 0 15 0 a7.5 7.5 0 1 0 -15 0zM336.91 253.38 a7.5 7.5 0 1 0 15 0 a7.5 7.5 0 1 0 -15 0zM336.91 328.38 a7.5 7.5 0 1 0 15 0 a7.5 7.5 0 1 0 -15 0zM401.86 -9.12 a7.5 7.5 0 1 0 15 0 a7.5 7.5 0 1 0 -15 0zM466.82 28.38 a7.5 7.5 0 1 0 15 0 a7.5 7.5 0 1 0 -15 0zM466.82 103.38 a7.5 7.5 0 1 0 15 0 a7.5 7.5 0 1 0 -15 0zM401.86 140.88 a7.5 7.5 0 1 0 15 0 a7.5 7.5 0 1 0 -15 0zM336.91 103.38 a7.5 7.5 0 1 0 15 0 a7.5 7.5 0 1 0 -15 0zM336.91 28.38 a7.5 7.5 0 1 0 15 0 a7.5 7.5 0 1 0 -15 0zM531.77 140.88 a7.5 7.5 0 1 0 15 0 a7.5 7.5 0 1 0 -15 0zM531.77 215.88 a7.5 7.5 0 1 0 15 0 a7.5 7.5 0 1 0 -15 0zM466.82 253.38 a7.5 7.5 0 1 0 15 0 a7.5 7.5 0 1 0 -15 0zM401.86 215.88 a7.5 7.5 0 1 0 15 0 a7.5 7.5 0 1 0 -15 0zM466.82 553.38 a7.5 7.5 0 1 0 15 0 a7.5 7.5 0 1 0 -15 0zM531.77 590.88 a7.5 7.5 0 1 0 15 0 a7.5 7.5 0 1 0 -15 0zM531.77 665.88 a7.5 7.5 0 1 0 15 0 a7.5 7.5 0 1 0 -15 0zM466.82 703.38 a7.5 7.5 0 1 0 15 0 a7.5 7.5 0 1 0 -15 0zM401.86 665.88 a7.5 7.5 0 1 0 15 0 a7.5 7.5 0 1 0 -15 0zM401.86 590.88 a7.5 7.5 0 1 0 15 0 a7.5 7.5 0 1 0 -15 0zM596.72 253.38 a7.5 7.5 0 1 0 15 0 a7.5 7.5 0 1 0 -15 0zM596.72 328.38 a7.5 7.5 0 1 0 15 0 a7.5 7.5 0 1 0 -15 0zM531.77 365.88 a7.5 7.5 0 1 0 15 0 a7.5 7.5 0 1 0 -15 0zM466.82 328.38 a7.5 7.5 0 1 0 15 0 a7.5 7.5 0 1 0 -15 0zM661.68 365.88 a7.5 7.5 0 1 0 15 0 a7.5 7.5 0 1 0 -15 0zM661.68 440.88 a7.5 7.5 0 1 0 15 0 a7.5 7.5 0 1 0 -15 0zM596.72 478.38 a7.5 7.5 0 1 0 15 0 a7.5 7.5 0 1 0 -15 0zM531.77 440.88 a7.5 7.5 0 1 0 15 0 a7.5 7.5 0 1 0 -15 0zM596.72 553.38 a7.5 7.5 0 1 0 15 0 a7.5 7.5 0 1 0 -15 0zM466.82 478.38 a7.5 7.5 0 1 0 15 0 a7.5 7.5 0 1 0 -15 0zM726.63 328.38 a7.5 7.5 0 1 0 15 0 a7.5 7.5 0 1 0 -15 0zM791.59 365.88 a7.5 7.5 0 1 0 15 0 a7.5 7.5 0 1 0 -15 0zM791.59 440.88 a7.5 7.5 0 1 0 15 0 a7.5 7.5 0 1 0 -15 0zM726.63 478.38 a7.5 7.5 0 1 0 15 0 a7.5 7.5 0 1 0 -15 0zM791.58 215.88 a7.5 7.5 0 1 0 15 0 a7.5 7.5 0 1 0 -15 0zM856.54 253.38 a7.5 7.5 0 1 0 15 0 a7.5 7.5 0 1 0 -15 0zM856.54 328.38 a7.5 7.5 0 1 0 15 0 a7.5 7.5 0 1 0 -15 0zM791.58 365.88 a7.5 7.5 0 1 0 15 0 a7.5 7.5 0 1 0 -15 0zM726.63 253.38 a7.5 7.5 0 1 0 15 0 a7.5 7.5 0 1 0 -15 0zM921.49 365.88 a7.5 7.5 0 1 0 15 0 a7.5 7.5 0 1 0 -15 0zM921.49 440.88 a7.5 7.5 0 1 0 15 0 a7.5 7.5 0 1 0 -15 0zM856.54 478.38 a7.5 7.5 0 1 0 15 0 a7.5 7.5 0 1 0 -15 0zM791.58 440.88 a7.5 7.5 0 1 0 15 0 a7.5 7.5 0 1 0 -15 0zM856.54 553.38 a7.5 7.5 0 1 0 15 0 a7.5 7.5 0 1 0 -15 0zM791.58 590.88 a7.5 7.5 0 1 0 15 0 a7.5 7.5 0 1 0 -15 0zM726.63 553.38 a7.5 7.5 0 1 0 15 0 a7.5 7.5 0 1 0 -15 0zM921.49 590.88 a7.5 7.5 0 1 0 15 0 a7.5 7.5 0 1 0 -15 0zM921.49 665.88 a7.5 7.5 0 1 0 15 0 a7.5 7.5 0 1 0 -15 0zM856.54 703.38 a7.5 7.5 0 1 0 15 0 a7.5 7.5 0 1 0 -15 0zM791.58 665.88 a7.5 7.5 0 1 0 15 0 a7.5 7.5 0 1 0 -15 0zM986.45 103.38 a7.5 7.5 0 1 0 15 0 a7.5 7.5 0 1 0 -15 0zM1051.4 140.88 a7.5 7.5 0 1 0 15 0 a7.5 7.5 0 1 0 -15 0zM1051.4 215.88 a7.5 7.5 0 1 0 15 0 a7.5 7.5 0 1 0 -15 0zM986.45 253.38 a7.5 7.5 0 1 0 15 0 a7.5 7.5 0 1 0 -15 0zM921.49 215.88 a7.5 7.5 0 1 0 15 0 a7.5 7.5 0 1 0 -15 0zM921.49 140.88 a7.5 7.5 0 1 0 15 0 a7.5 7.5 0 1 0 -15 0zM986.45 328.38 a7.5 7.5 0 1 0 15 0 a7.5 7.5 0 1 0 -15 0zM1051.4 365.88 a7.5 7.5 0 1 0 15 0 a7.5 7.5 0 1 0 -15 0zM1051.4 440.88 a7.5 7.5 0 1 0 15 0 a7.5 7.5 0 1 0 -15 0zM986.45 478.38 a7.5 7.5 0 1 0 15 0 a7.5 7.5 0 1 0 -15 0zM986.45 553.38 a7.5 7.5 0 1 0 15 0 a7.5 7.5 0 1 0 -15 0zM1116.35 103.38 a7.5 7.5 0 1 0 15 0 a7.5 7.5 0 1 0 -15 0zM1181.31 140.88 a7.5 7.5 0 1 0 15 0 a7.5 7.5 0 1 0 -15 0zM1181.31 215.88 a7.5 7.5 0 1 0 15 0 a7.5 7.5 0 1 0 -15 0zM1116.35 253.38 a7.5 7.5 0 1 0 15 0 a7.5 7.5 0 1 0 -15 0zM1116.35 328.38 a7.5 7.5 0 1 0 15 0 a7.5 7.5 0 1 0 -15 0zM1181.31 365.88 a7.5 7.5 0 1 0 15 0 a7.5 7.5 0 1 0 -15 0zM1181.31 440.88 a7.5 7.5 0 1 0 15 0 a7.5 7.5 0 1 0 -15 0zM1116.35 478.38 a7.5 7.5 0 1 0 15 0 a7.5 7.5 0 1 0 -15 0zM1116.35 553.38 a7.5 7.5 0 1 0 15 0 a7.5 7.5 0 1 0 -15 0zM1051.4 590.88 a7.5 7.5 0 1 0 15 0 a7.5 7.5 0 1 0 -15 0zM1246.26 103.38 a7.5 7.5 0 1 0 15 0 a7.5 7.5 0 1 0 -15 0zM1311.21 140.88 a7.5 7.5 0 1 0 15 0 a7.5 7.5 0 1 0 -15 0zM1311.21 215.88 a7.5 7.5 0 1 0 15 0 a7.5 7.5 0 1 0 -15 0zM1246.26 253.38 a7.5 7.5 0 1 0 15 0 a7.5 7.5 0 1 0 -15 0zM1441.12 -9.12 a7.5 7.5 0 1 0 15 0 a7.5 7.5 0 1 0 -15 0zM1506.08 28.38 a7.5 7.5 0 1 0 15 0 a7.5 7.5 0 1 0 -15 0zM1506.08 103.38 a7.5 7.5 0 1 0 15 0 a7.5 7.5 0 1 0 -15 0zM1441.12 140.88 a7.5 7.5 0 1 0 15 0 a7.5 7.5 0 1 0 -15 0zM1376.17 103.38 a7.5 7.5 0 1 0 15 0 a7.5 7.5 0 1 0 -15 0zM1376.17 28.38 a7.5 7.5 0 1 0 15 0 a7.5 7.5 0 1 0 -15 0zM1441.12 440.88 a7.5 7.5 0 1 0 15 0 a7.5 7.5 0 1 0 -15 0zM1506.08 478.38 a7.5 7.5 0 1 0 15 0 a7.5 7.5 0 1 0 -15 0zM1506.08 553.38 a7.5 7.5 0 1 0 15 0 a7.5 7.5 0 1 0 -15 0zM1441.12 590.88 a7.5 7.5 0 1 0 15 0 a7.5 7.5 0 1 0 -15 0zM1376.17 553.38 a7.5 7.5 0 1 0 15 0 a7.5 7.5 0 1 0 -15 0zM1376.17 478.38 a7.5 7.5 0 1 0 15 0 a7.5 7.5 0 1 0 -15 0z" fill="#03305d"></path>
        <path d="M45.75 -43.77L89.05 -18.77L89.05 31.23L45.75 56.23L2.45 31.23L2.45 -18.77zM45.75 106.23L89.05 131.23L89.05 181.23L45.75 206.23L2.45 181.23L2.45 131.23zM89.05 181.23L132.36 206.23L132.36 256.23L89.05 281.23L45.75 256.23L45.75 206.23zM89.05 331.23L132.36 356.23L132.36 406.23L89.05 431.23L45.75 406.23L45.75 356.23zM89.05 481.23L132.36 506.23L132.36 556.23L89.05 581.23L45.75 556.23L45.75 506.23zM132.36 -43.77L175.66 -18.77L175.66 31.23L132.36 56.23L89.05 31.23L89.05 -18.77zM175.66 31.23L218.96 56.23L218.96 106.23L175.66 131.23L132.36 106.23L132.36 56.23zM175.66 181.23L218.96 206.23L218.96 256.23L175.66 281.23L132.36 256.23L132.36 206.23zM132.36 256.23L175.66 281.23L175.66 331.23L132.36 356.23L89.05 331.23L89.05 281.23zM175.66 481.23L218.96 506.23L218.96 556.23L175.66 581.23L132.36 556.23L132.36 506.23zM262.26 31.23L305.56 56.23L305.56 106.23L262.26 131.23L218.96 106.23L218.96 56.23zM262.26 331.23L305.56 356.23L305.56 406.23L262.26 431.23L218.96 406.23L218.96 356.23zM218.96 406.23L262.26 431.23L262.26 481.23L218.96 506.23L175.66 481.23L175.66 431.23zM305.56 -43.77L348.87 -18.77L348.87 31.23L305.56 56.23L262.26 31.23L262.26 -18.77zM305.56 256.23L348.87 281.23L348.87 331.23L305.56 356.23L262.26 331.23L262.26 281.23zM348.87 331.23L392.17 356.23L392.17 406.23L348.87 431.23L305.56 406.23L305.56 356.23zM435.47 31.23L478.78 56.23L478.78 106.23L435.47 131.23L392.17 106.23L392.17 56.23zM435.47 181.23L478.78 206.23L478.78 256.23L435.47 281.23L392.17 256.23L392.17 206.23zM392.17 256.23L435.47 281.23L435.47 331.23L392.17 356.23L348.87 331.23L348.87 281.23zM435.47 331.23L478.78 356.23L478.78 406.23L435.47 431.23L392.17 406.23L392.17 356.23zM392.17 406.23L435.47 431.23L435.47 481.23L392.17 506.23L348.87 481.23L348.87 431.23zM478.78 -43.77L522.08 -18.77L522.08 31.23L478.78 56.23L435.47 31.23L435.47 -18.77zM478.78 406.23L522.08 431.23L522.08 481.23L478.78 506.23L435.47 481.23L435.47 431.23zM522.08 481.23L565.38 506.23L565.38 556.23L522.08 581.23L478.78 556.23L478.78 506.23zM608.68 181.23L651.99 206.23L651.99 256.23L608.68 281.23L565.38 256.23L565.38 206.23zM651.99 106.23L695.29 131.23L695.29 181.23L651.99 206.23L608.68 181.23L608.68 131.23zM651.99 256.23L695.29 281.23L695.29 331.23L651.99 356.23L608.68 331.23L608.68 281.23zM738.59 106.23L781.89 131.23L781.89 181.23L738.59 206.23L695.29 181.23L695.29 131.23zM738.59 406.23L781.89 431.23L781.89 481.23L738.59 506.23L695.29 481.23L695.29 431.23zM781.89 481.23L825.2 506.23L825.2 556.23L781.89 581.23L738.59 556.23L738.59 506.23zM825.2 106.23L868.5 131.23L868.5 181.23L825.2 206.23L781.89 181.23L781.89 131.23zM825.2 256.23L868.5 281.23L868.5 331.23L825.2 356.23L781.89 331.23L781.89 281.23zM868.5 331.23L911.8 356.23L911.8 406.23L868.5 431.23L825.2 406.23L825.2 356.23zM911.8 106.23L955.1 131.23L955.1 181.23L911.8 206.23L868.5 181.23L868.5 131.23zM955.1 181.23L998.41 206.23L998.41 256.23L955.1 281.23L911.8 256.23L911.8 206.23zM911.8 406.23L955.1 431.23L955.1 481.23L911.8 506.23L868.5 481.23L868.5 431.23zM998.41 106.23L1041.71 131.23L1041.71 181.23L998.41 206.23L955.1 181.23L955.1 131.23zM1041.71 181.23L1085.01 206.23L1085.01 256.23L1041.71 281.23L998.41 256.23L998.41 206.23zM998.41 256.23L1041.71 281.23L1041.71 331.23L998.41 356.23L955.1 331.23L955.1 281.23zM1128.31 31.23L1171.62 56.23L1171.62 106.23L1128.31 131.23L1085.01 106.23L1085.01 56.23zM1085.01 106.23L1128.31 131.23L1128.31 181.23L1085.01 206.23L1041.71 181.23L1041.71 131.23zM1085.01 256.23L1128.31 281.23L1128.31 331.23L1085.01 356.23L1041.71 331.23L1041.71 281.23zM1128.31 331.23L1171.62 356.23L1171.62 406.23L1128.31 431.23L1085.01 406.23L1085.01 356.23zM1085.01 406.23L1128.31 431.23L1128.31 481.23L1085.01 506.23L1041.71 481.23L1041.71 431.23zM1214.92 31.23L1258.22 56.23L1258.22 106.23L1214.92 131.23L1171.62 106.23L1171.62 56.23zM1214.92 181.23L1258.22 206.23L1258.22 256.23L1214.92 281.23L1171.62 256.23L1171.62 206.23zM1171.62 406.23L1214.92 431.23L1214.92 481.23L1171.62 506.23L1128.31 481.23L1128.31 431.23zM1214.92 481.23L1258.22 506.23L1258.22 556.23L1214.92 581.23L1171.62 556.23L1171.62 506.23zM1301.52 181.23L1344.83 206.23L1344.83 256.23L1301.52 281.23L1258.22 256.23L1258.22 206.23zM1301.52 481.23L1344.83 506.23L1344.83 556.23L1301.52 581.23L1258.22 556.23L1258.22 506.23zM1388.13 31.23L1431.43 56.23L1431.43 106.23L1388.13 131.23L1344.83 106.23L1344.83 56.23zM1388.13 181.23L1431.43 206.23L1431.43 256.23L1388.13 281.23L1344.83 256.23L1344.83 206.23zM1344.83 406.23L1388.13 431.23L1388.13 481.23L1344.83 506.23L1301.52 481.23L1301.52 431.23zM1388.13 481.23L1431.43 506.23L1431.43 556.23L1388.13 581.23L1344.83 556.23L1344.83 506.23zM1474.73 181.23L1518.04 206.23L1518.04 256.23L1474.73 281.23L1431.43 256.23L1431.43 206.23zM1474.73 481.23L1518.04 506.23L1518.04 556.23L1474.73 581.23L1431.43 556.23L1431.43 506.23z" stroke="rgba(6, 80, 156, 0.93)" stroke-width="2"></path>
    </g>
    <defs>
        <mask id="SvgjsMask1000">
            <rect width="1440" height="560" fill="#ffffff"></rect>
        </mask>
    </defs>
</svg>